<?xml version="1.0" encoding="UTF-8" standalone="no"?>
<!DOCTYPE svg PUBLIC "-//W3C//DTD SVG 1.1//EN" "http://www.w3.org/Graphics/SVG/1.1/DTD/svg11.dtd">
<svg width="100%" height="100%" viewBox="0 0 1376 356" version="1.1" xmlns="http://www.w3.org/2000/svg" xmlns:xlink="http://www.w3.org/1999/xlink" xml:space="preserve" xmlns:serif="http://www.serif.com/" style="fill-rule:evenodd;clip-rule:evenodd;stroke-linejoin:round;stroke-miterlimit:2;">
    <g transform="matrix(0.70161,0,0,0.70161,-511.615,-955.691)">
        <path d="M861.785,1616.71C863.978,1618.23 866.071,1619.88 868.082,1621.64C871.853,1624.94 875.208,1628.75 878.276,1632.98C881.511,1637.43 884.241,1642.59 886.612,1648.39C888.535,1653.09 890.091,1658.27 891.401,1663.92C892.568,1668.96 893.478,1674.55 894.215,1680.69C895.089,1687.96 895.606,1696.04 895.845,1704.94L896.296,1721.73C896.422,1726.45 896.777,1730.86 897.276,1734.97C897.807,1739.35 898.625,1743.33 899.615,1746.96C900.319,1749.54 901.352,1751.88 902.526,1754.09C903.639,1756.17 905.091,1757.99 906.67,1759.7C908.213,1761.37 910.142,1762.69 912.235,1763.95C914.512,1765.33 917.116,1766.37 919.935,1767.34C923.925,1768.71 928.566,1769.71 933.81,1770.59C938.576,1771.39 943.812,1771.94 949.512,1772.37C960.837,1773.56 969.435,1783.11 969.435,1794.5L970.938,1845.43C970.938,1858.55 960.302,1869.19 947.183,1869.19C917.205,1868.17 891.686,1864.3 870.567,1857.37C850.644,1850.83 834.329,1841.98 821.687,1830.57C806.933,1817.37 796.016,1801.3 789.505,1781.93C784.132,1765.95 781.445,1747.79 782.051,1727.33L783.227,1687.59C783.36,1683.1 783.22,1679.12 782.47,1675.67C781.822,1672.69 781.062,1670.12 779.438,1668.29C778,1666.68 776.274,1665.39 774.128,1664.61C771.543,1663.67 768.597,1663.12 765.27,1663.04L752.956,1662.73C745.353,1662.73 739.189,1656.57 739.189,1648.97L740.613,1586.28C740.613,1579.46 746.139,1573.93 752.956,1573.93L765.27,1574.18C768.873,1574.25 772.109,1573.97 774.95,1573.07C777.6,1572.23 779.915,1571 781.748,1569.12C783.83,1566.99 785.3,1564.1 786.261,1560.51C787.248,1556.81 787.788,1552.53 787.875,1547.66L788.413,1507.36C788.66,1487.88 791.717,1470.68 797.422,1455.68C804.087,1438.15 814.304,1423.54 828.27,1411.93C840.223,1401.86 855.419,1394.13 873.877,1388.69C894.193,1382.69 918.601,1379.44 947.183,1379.23C952.715,1379.23 957.2,1383.72 957.2,1389.25L957.957,1440.19C957.957,1445.7 953.794,1450.33 948.311,1450.9C942.282,1451.63 936.762,1452.54 931.742,1453.61C925.933,1454.85 920.839,1456.34 916.452,1458.06C913.009,1459.41 909.923,1461.01 907.175,1462.83C904.397,1464.68 902.031,1466.81 900.028,1469.17C898.065,1471.51 896.473,1474.11 895.144,1476.91C893.828,1479.68 892.873,1482.69 892.157,1485.91C891.268,1489.89 890.693,1494.28 890.34,1499.06C890.021,1503.38 889.939,1508.01 890.039,1512.95L890.39,1530.3C890.57,1539.16 890.375,1547.15 889.867,1554.3C889.431,1560.45 888.712,1565.98 887.79,1570.92C886.79,1576.38 885.404,1581.39 883.76,1586C881.766,1591.58 879.238,1596.54 876.359,1600.95C873.594,1605.2 870.398,1608.95 866.901,1612.32C865.28,1613.89 863.571,1615.35 861.785,1616.71ZM765.574,1598.37L766.403,1634.88C774.301,1634.83 781.174,1636.27 787.116,1638.71C792.447,1640.9 796.984,1644.13 800.918,1648.11C805.078,1652.31 808.277,1657.73 810.646,1664.32C812.947,1670.72 814.211,1678.47 814.481,1687.59L815.657,1727.33C816.127,1743.19 818.863,1757.15 823.757,1769.28C828.861,1781.92 836.755,1792.2 847.107,1800.4C858.614,1809.45 873.956,1815.12 892.721,1818.58C902.33,1820.34 912.796,1821.37 924.127,1821.74C924.127,1821.74 924.385,1813.01 924.385,1813.01C923.378,1812.77 922.389,1812.53 921.417,1812.29C915.315,1810.74 909.84,1809.06 905.024,1807.1C899.349,1804.8 894.214,1802.2 889.697,1799.13C884.314,1795.47 879.611,1791.42 875.749,1786.76C872.055,1782.3 868.844,1777.49 866.357,1772.16C864.077,1767.27 862.196,1762.05 860.975,1756.4C859.808,1751 858.914,1745.09 858.48,1738.63C858.126,1733.37 857.976,1727.74 858.137,1721.73L858.588,1704.94C858.757,1698.64 858.756,1692.81 858.507,1687.43C858.224,1681.31 857.731,1675.82 856.875,1670.95C856.216,1667.21 855.426,1663.74 854.332,1660.59C853.232,1657.43 852.009,1654.56 850.409,1652.09C848.976,1649.87 847.44,1647.81 845.621,1646.05C843.801,1644.29 841.837,1642.7 839.627,1641.4C836.716,1639.69 833.566,1638.07 830.133,1636.61C826.857,1635.21 823.369,1633.89 819.642,1632.71C812.937,1630.75 808.327,1624.61 808.327,1617.62C808.327,1610.64 812.937,1604.49 819.642,1602.54C823.431,1601.53 827.008,1600.44 830.355,1599.2C833.892,1597.88 837.189,1596.48 840.211,1594.89C842.583,1593.65 844.811,1592.22 846.802,1590.48C848.817,1588.71 850.691,1586.74 852.326,1584.47C854.162,1581.93 855.799,1579.05 857.141,1575.78C858.457,1572.58 859.597,1569.08 860.485,1565.25C861.607,1560.35 862.483,1554.71 863.072,1548.31C863.576,1542.83 863.91,1536.83 864.042,1530.3L864.394,1512.95C864.511,1507.17 864.838,1501.75 865.416,1496.71C866.111,1490.66 867.098,1485.12 868.433,1480.11C869.76,1475.12 871.5,1470.48 873.739,1466.22C876.131,1461.66 878.981,1457.48 882.392,1453.74C885.893,1449.87 889.985,1446.41 894.757,1443.45C898.853,1440.92 903.42,1438.69 908.507,1436.87C912.996,1435.26 918.056,1433.84 923.709,1432.67C927.689,1431.85 931.969,1431.13 936.552,1430.52C936.552,1430.52 937.015,1399.33 937.015,1399.33C914.865,1399.76 895.573,1402.21 879.187,1406.92C863.532,1411.42 850.636,1417.94 840.524,1426.47C829.253,1436.09 821.005,1448.09 815.841,1462.48C811.155,1475.54 809.081,1490.52 809.294,1507.36L809.833,1547.66C809.989,1556.27 808.97,1563.62 807.083,1569.76C805.189,1575.92 802.256,1580.92 798.608,1584.96C794.308,1589.72 788.922,1593.19 782.527,1595.49C777.571,1597.27 771.92,1598.22 765.574,1598.37Z" style="fill:url(#_Linear1);"/>
        <path d="M1233.19,1794.42L1171.91,1662.03C1171.91,1662.03 1122.82,1660.87 1122.82,1660.87L1120.01,1783.86C1120.01,1791.83 1113.55,1798.28 1105.59,1798.28L1027.22,1796.76C1020.1,1796.76 1014.33,1790.98 1014.33,1783.86C1014.33,1783.86 1016.63,1657.88 1017.41,1548.78C1018.01,1465.49 1017.61,1392.05 1017.61,1392.05C1017.61,1386.74 1021.91,1382.43 1027.22,1382.43L1209.7,1380.49C1219.26,1380.34 1228.59,1380.89 1237.7,1382.04C1247.18,1383.25 1256.4,1385.17 1265.38,1387.77C1274.31,1390.35 1282.67,1393.7 1290.53,1397.74C1298.73,1401.95 1306.33,1407 1313.38,1412.79C1320.5,1418.63 1326.83,1425.24 1332.46,1432.57C1337.91,1439.65 1342.62,1447.44 1346.66,1455.92C1351.04,1465.02 1354.28,1474.99 1356.47,1485.82C1358.39,1495.3 1359.42,1505.47 1359.62,1516.31C1359.91,1531.32 1358.59,1545.08 1355.86,1557.62C1352.57,1572.78 1347.03,1586.16 1339.56,1597.9C1332.2,1609.52 1322.74,1619.65 1311.34,1628.45C1306.04,1632.54 1300.29,1636.31 1294.09,1639.76L1364,1774.3C1367.3,1781.01 1366.91,1788.94 1362.96,1795.29C1359.01,1801.64 1352.07,1805.5 1344.59,1805.5L1254.48,1807.62C1245.45,1807.62 1237.2,1802.5 1233.19,1794.42ZM1268.94,1760.45L1310.26,1761.42L1253.45,1639.57C1251.22,1635.04 1251,1629.79 1252.83,1625.09C1254.66,1620.39 1258.38,1616.67 1263.08,1614.85C1273.55,1611.04 1282.85,1606.43 1290.88,1600.76C1299.34,1594.78 1306.48,1587.82 1312.12,1579.69C1317.97,1571.23 1322.36,1561.47 1325.21,1550.36C1327.86,1540.07 1329.33,1528.73 1329.56,1516.31C1329.73,1507.36 1329.23,1498.93 1327.94,1491.05C1326.55,1482.59 1324.38,1474.74 1321.25,1467.56C1318.28,1460.77 1314.78,1454.49 1310.67,1448.77C1306.47,1442.93 1301.71,1437.61 1296.32,1432.89C1290.84,1428.08 1284.91,1423.86 1278.47,1420.28C1272.14,1416.76 1265.37,1413.8 1258.12,1411.45C1250.42,1408.95 1242.49,1407.01 1234.32,1405.72C1226.33,1404.45 1218.13,1403.74 1209.7,1403.62L1036.8,1401.77C1036.71,1424.38 1036.57,1483.56 1037.04,1548.78C1037.67,1636.75 1039.29,1735.7 1039.89,1770.72L1090.84,1769.73L1087.94,1642.81C1087.94,1633.06 1095.84,1625.16 1105.59,1625.16L1184.51,1623.3C1191.92,1623.3 1198.7,1627.5 1201.99,1634.14L1268.94,1760.45ZM1287.75,1517.99C1285.76,1543.41 1277.44,1561.62 1262,1572.74C1249.04,1582.06 1231.46,1587.82 1208.02,1586.09L1105.59,1580.06C1099.44,1580.06 1094.45,1575.07 1094.45,1568.93C1094.45,1568.93 1095.84,1543.76 1096.06,1518.55C1096.29,1493.36 1095.35,1468.17 1095.35,1468.17C1095.35,1462.52 1099.93,1457.94 1105.59,1457.94C1105.59,1457.94 1131.18,1457.06 1156.8,1455.56C1182.49,1454.05 1208.02,1451.93 1208.02,1451.93C1219.84,1450.97 1230.19,1452.11 1239.38,1454.25C1247.73,1456.2 1254.82,1459.8 1261.27,1463.99C1268.85,1468.81 1274.27,1475.91 1278.99,1484.3C1283.99,1493.19 1286.49,1504.43 1287.75,1517.99ZM1240.24,1517.99C1240.73,1512.64 1241.31,1507.96 1240.35,1503.87C1239.58,1500.56 1239.26,1497.37 1237.05,1495.31C1233.81,1492.35 1230.07,1489.65 1225.25,1488.03C1220.17,1486.32 1214.5,1484.94 1208.02,1484.41C1208.02,1484.41 1182.49,1482.3 1156.8,1480.79C1141.04,1479.87 1125.29,1479.18 1115.5,1478.79C1115.26,1488.46 1114.98,1503.51 1115.11,1518.55C1115.24,1533.02 1115.75,1547.48 1116.16,1557.17L1208.02,1551.76C1220.48,1550.85 1229.72,1547.53 1235.78,1541.59C1241.17,1536.3 1241.03,1528.08 1240.24,1517.99Z" style="fill:url(#_Linear2);"/>
        <path d="M1403.12,1783.86L1411.42,1392.05C1411.42,1383.52 1418.34,1376.6 1426.87,1376.6L1698.9,1380.78C1705.13,1380.78 1710.17,1385.83 1710.17,1392.05L1709.41,1468.73C1709.41,1474.54 1704.71,1479.24 1698.9,1479.24L1514.69,1478.22L1514.8,1526.81L1617.74,1526.03C1623.5,1526.03 1628.17,1530.7 1628.17,1536.46L1628.95,1612.59C1628.95,1618.78 1623.93,1623.79 1617.74,1623.79C1617.74,1623.79 1517.99,1625.01 1517.99,1625.01L1518.91,1693.09L1707.3,1690.06C1716.76,1690.06 1724.42,1697.72 1724.42,1707.18L1725.8,1783.86C1725.8,1794.08 1717.52,1802.37 1707.3,1802.37L1426.87,1807.62C1413.75,1807.62 1403.12,1796.98 1403.12,1783.86ZM1450.13,1760.54L1689.13,1765.02C1689.13,1765.02 1689.87,1724.02 1689.87,1724.02L1505.24,1721.05C1497.57,1721.05 1491.36,1714.84 1491.36,1707.18L1492.65,1612.59C1492.65,1605.63 1498.29,1600 1505.24,1600L1606.65,1601.24L1607.2,1546.82L1505.24,1546.05C1499.94,1546.05 1495.65,1541.76 1495.65,1536.46L1495.8,1468.73C1495.8,1463.52 1500.02,1459.3 1505.24,1459.3C1505.24,1459.3 1688.29,1458.28 1688.29,1458.28L1687.75,1403.49L1442.65,1407.26L1450.13,1760.54Z" style="fill:url(#_Linear3);"/>
        <path d="M2093.76,1665.2C2093.51,1675.59 2092.56,1685.51 2090.72,1694.96C2088.72,1705.29 2085.89,1715.1 2082.04,1724.33C2078.14,1733.66 2073.33,1742.36 2067.38,1750.32C2061.57,1758.1 2054.87,1765.3 2047.08,1771.75C2039.07,1778.37 2030.11,1784.27 2020.03,1789.21C2011.22,1793.53 2001.63,1797.28 1991.17,1800.26C1979.72,1803.54 1967.1,1805.94 1953.26,1807.28C1941.73,1808.4 1929.34,1808.89 1916.08,1808.62C1898.8,1808.27 1882.33,1806.37 1866.65,1802.8C1850.01,1799 1834.24,1793.49 1819.39,1786.1C1805.23,1779.05 1792.61,1770.89 1781.58,1761.5C1769.76,1751.43 1759.66,1740.09 1751.41,1727.36C1747.18,1721.13 1748.23,1712.73 1753.84,1707.73L1811.24,1658.32C1813.99,1655.88 1817.6,1654.63 1821.27,1654.88C1824.94,1655.12 1828.36,1656.83 1830.76,1659.62C1836.64,1666.69 1842.82,1672.85 1849.39,1678.02C1856.33,1683.47 1863.62,1687.89 1871.34,1691.18C1879.1,1694.46 1887.09,1696.97 1895.34,1698.66C1903.51,1700.32 1911.91,1701.24 1920.56,1701.35C1931.96,1701.51 1941.79,1700.86 1950.04,1699.26C1956.65,1697.98 1962.15,1696.2 1966.47,1693.65C1970.32,1691.37 1973.28,1688.43 1975.14,1684.63C1977.06,1680.74 1977.96,1676.11 1978.01,1670.8C1978.03,1668.51 1977.89,1666.37 1977.53,1664.37C1977.17,1662.39 1976.64,1660.57 1975.86,1658.9C1975.13,1657.35 1974.03,1655.86 1972.59,1654.4C1971.06,1652.85 1969.22,1651.34 1967.06,1649.87C1964.09,1647.85 1960.38,1645.88 1955.94,1643.95C1952.17,1642.31 1947.91,1640.7 1943.16,1639.12L1899.37,1627.21C1899.36,1627.21 1899.34,1627.21 1899.33,1627.2C1890.49,1625.13 1881.98,1622.88 1873.81,1620.45C1865.04,1617.85 1856.66,1615.05 1848.67,1612.04C1840.98,1609.17 1833.82,1605.93 1827.18,1602.34C1819.9,1598.39 1813.24,1594.02 1807.2,1589.22C1801.14,1584.39 1795.78,1578.93 1791.08,1572.85C1786.5,1566.92 1782.55,1560.41 1779.27,1553.28C1775.72,1545.55 1773.1,1536.81 1771.43,1527.06C1770.05,1518.97 1769.33,1510.17 1769.3,1500.64C1769.24,1491.22 1770.13,1482.28 1771.93,1473.8C1773.87,1464.64 1776.9,1456.03 1780.99,1447.95C1784.91,1440.14 1789.6,1432.94 1795.01,1426.3C1800.4,1419.68 1806.53,1413.65 1813.39,1408.18C1820.38,1402.62 1827.99,1397.73 1836.2,1393.48C1843.94,1389.48 1852.24,1386.08 1861.08,1383.26C1870.29,1380.32 1879.84,1378.12 1889.73,1376.63C1899.13,1375.21 1908.85,1374.46 1918.88,1374.36C1934.23,1374.16 1948.67,1375.31 1962.23,1377.71C1977.46,1380.4 1991.57,1384.76 2004.6,1390.68C2017.07,1396.35 2028.95,1403.23 2040.27,1411.26C2051.23,1419.04 2061.63,1427.94 2071.52,1437.94C2076.76,1443.39 2076.61,1452.06 2071.18,1457.33L2015.52,1513.09C2009.58,1518.85 2000.09,1518.71 1994.31,1512.77C1988.67,1507.15 1982.85,1502.21 1976.87,1497.9C1970.65,1493.41 1964.23,1489.68 1957.64,1486.65C1951.35,1483.75 1944.65,1481.7 1937.59,1480.36C1930.77,1479.07 1923.6,1478.56 1916.08,1478.68C1911.94,1478.76 1908.11,1479.04 1904.58,1479.48C1900.85,1479.94 1897.5,1480.66 1894.54,1481.58L1882.93,1487.23L1879.1,1491.77L1878.15,1497.28L1879.72,1504.2L1885.49,1508.43L1905.85,1515.86L1943.63,1524.94L1992.2,1537.67C2000.88,1540.32 2009.14,1543.57 2017.02,1547.31C2025.25,1551.2 2033.01,1555.74 2040.38,1560.81C2048.12,1566.12 2055.09,1572.26 2061.43,1579.1C2067.63,1585.79 2073.09,1593.26 2077.94,1601.41C2083.46,1610.7 2087.51,1621.41 2090.22,1633.49C2092.38,1643.1 2093.52,1653.67 2093.76,1665.2ZM2046.25,1665.2C2046.42,1657.06 2046.01,1649.57 2044.77,1642.72C2043.48,1635.65 2041.55,1629.28 2038.56,1623.76C2035.58,1618.25 2032.23,1613.15 2028.32,1608.57C2024.37,1603.95 2020.01,1599.74 2015.11,1596.08C2009.77,1592.09 2004.13,1588.48 1998.11,1585.34C1992.17,1582.25 1985.92,1579.51 1979.33,1577.23L1934.42,1563.65L1894.96,1552.59C1888.82,1550.64 1883.35,1548.67 1878.58,1546.62C1874.27,1544.77 1870.46,1542.91 1867.18,1540.98C1862.35,1538.14 1858.31,1535.12 1855.11,1531.89C1852.06,1528.82 1849.59,1525.63 1847.77,1522.26C1846.05,1519.08 1844.61,1515.62 1843.67,1511.8C1842.59,1507.43 1841.97,1502.61 1842.06,1497.28C1842.13,1493.73 1842.5,1490.26 1843.3,1486.88C1844.1,1483.53 1845.18,1480.23 1846.7,1477.04C1848.45,1473.39 1850.69,1469.86 1853.66,1466.59C1856,1464.02 1858.71,1461.51 1861.91,1459.2C1864.69,1457.19 1867.78,1455.3 1871.25,1453.65C1875.32,1451.72 1879.88,1449.99 1885,1448.61C1888.91,1447.56 1893.21,1446.7 1897.93,1446.16C1903.4,1445.54 1909.44,1445.23 1916.08,1445.35C1925.93,1445.52 1935.3,1446.55 1944.17,1448.54C1953.79,1450.7 1962.86,1453.85 1971.35,1458.1C1979.6,1462.23 1987.62,1467.23 1995.33,1473.19C1998.7,1475.8 2002.02,1478.57 2005.3,1481.52C2005.3,1481.52 2041.89,1447.13 2041.89,1447.13C2036.36,1441.9 2030.63,1437.05 2024.7,1432.58C2014.92,1425.23 2004.64,1418.87 1993.8,1413.57C1982.75,1408.17 1970.73,1404.1 1957.69,1401.43C1945.59,1398.95 1932.65,1397.61 1918.88,1397.43C1909.93,1397.34 1901.26,1397.82 1892.85,1398.9C1884.12,1400.03 1875.68,1401.79 1867.52,1404.2C1859.82,1406.48 1852.58,1409.26 1845.82,1412.58C1838.78,1416.03 1832.23,1420.03 1826.21,1424.62C1820.43,1429.03 1815.23,1433.91 1810.67,1439.3C1806.08,1444.72 1802.09,1450.64 1798.73,1457.06C1795.32,1463.59 1792.77,1470.57 1791.09,1478C1789.48,1485.14 1788.64,1492.69 1788.59,1500.64C1788.56,1509.03 1789.1,1516.78 1790.27,1523.91C1791.58,1531.89 1793.65,1539.06 1796.53,1545.39C1799.16,1551.19 1802.3,1556.51 1806.01,1561.32C1809.77,1566.19 1814.1,1570.54 1818.97,1574.38C1824.18,1578.5 1829.92,1582.23 1836.2,1585.6C1842.11,1588.76 1848.48,1591.59 1855.31,1594.1C1862.92,1596.88 1870.9,1599.45 1879.24,1601.84C1887.07,1604.08 1895.22,1606.14 1903.68,1608.03L1949.44,1619.64C1956.12,1621.72 1961.95,1623.89 1966.95,1626.11C1971.54,1628.14 1975.45,1630.26 1978.72,1632.39C1982.97,1635.17 1986.44,1638.11 1989.21,1641.12C1991.74,1643.88 1993.67,1646.75 1995.11,1649.67C1996.7,1652.91 1997.88,1656.46 1998.65,1660.33C1999.31,1663.58 1999.64,1667.07 1999.67,1670.8C1999.76,1679.74 1998.09,1687.49 1995.01,1694.12C1991.42,1701.85 1985.82,1708.08 1978.19,1712.87C1972.05,1716.73 1964.25,1719.76 1954.74,1721.87C1945.21,1723.99 1933.81,1725.14 1920.56,1725.32C1910.35,1725.46 1900.42,1724.64 1890.74,1722.94C1880.8,1721.19 1871.14,1718.45 1861.75,1714.78C1851.84,1710.94 1842.41,1705.68 1833.41,1699.07C1828.75,1695.66 1824.23,1691.87 1819.83,1687.7C1819.83,1687.7 1784.21,1720.56 1784.21,1720.56C1789.44,1726.49 1795.27,1731.93 1801.65,1736.93C1811.05,1744.3 1821.75,1750.56 1833.65,1755.88C1846.34,1761.56 1859.73,1765.61 1873.79,1768.22C1887.26,1770.71 1901.36,1771.72 1916.08,1771.42C1927.74,1771.18 1938.61,1770.33 1948.71,1768.91C1959.9,1767.34 1970.06,1764.95 1979.24,1761.87C1987.13,1759.22 1994.32,1756.02 2000.9,1752.4C2007.71,1748.65 2013.73,1744.29 2019.05,1739.45C2023.92,1735.01 2028.05,1730.11 2031.6,1724.86C2035.13,1719.65 2037.87,1713.97 2040.06,1707.94C2042.44,1701.4 2044.04,1694.48 2045.09,1687.23C2046.12,1680.2 2046.43,1672.86 2046.25,1665.2Z" style="fill:url(#_Linear4);"/>
        <path d="M2327.61,1492.42L2319.05,1783.86C2319.05,1791.88 2312.55,1798.39 2304.53,1798.39L2226.17,1796.59C2219.14,1796.59 2213.44,1790.89 2213.44,1783.86C2213.44,1783.86 2215.57,1682.73 2216.34,1595.12C2216.78,1544.47 2216.7,1498.36 2216.64,1478.97L2113.66,1480.13C2107.68,1480.13 2102.83,1475.28 2102.83,1469.29L2101.62,1392.05C2101.62,1385.4 2107.01,1380.01 2113.66,1380.01L2417.04,1373.31C2427.39,1373.31 2435.78,1381.7 2435.78,1392.05L2437.74,1469.29C2437.74,1480.73 2428.47,1490 2417.04,1490L2327.61,1492.42ZM2304.53,1445.54L2396.87,1448.04L2397.83,1410.37L2125.51,1404.35C2125.51,1404.35 2124.67,1458.58 2124.67,1458.58L2226.17,1459.72C2231.45,1459.72 2235.74,1464.01 2235.74,1469.29C2235.74,1469.29 2235.42,1528.26 2236,1595.12C2236.6,1663.79 2238.04,1740.78 2238.63,1770.85C2238.63,1770.85 2289.59,1769.68 2289.59,1769.68L2280.78,1469.29C2280.78,1456.17 2291.41,1445.54 2304.53,1445.54Z" style="fill:url(#_Linear5);"/>
        <path d="M2569.17,1617.02C2568.41,1616.62 2567.66,1616.22 2566.93,1615.82C2562.88,1613.59 2559.16,1610.92 2555.79,1607.83C2552.49,1604.82 2549.51,1601.39 2546.86,1597.55C2544.06,1593.51 2541.67,1588.92 2539.66,1583.77C2537.96,1579.43 2536.53,1574.67 2535.41,1569.5C2534.37,1564.73 2533.56,1559.36 2532.96,1553.4C2532.24,1546.37 2531.84,1538.48 2531.75,1529.75L2531.49,1512.95C2531.42,1507.94 2531.13,1503.25 2530.65,1498.88C2530.12,1494.03 2529.32,1489.6 2528.27,1485.58C2527.41,1482.31 2526.24,1479.28 2524.79,1476.48C2523.33,1473.68 2521.53,1471.14 2519.44,1468.83C2517.35,1466.51 2514.81,1464.51 2511.91,1462.75C2509.07,1461.02 2505.86,1459.58 2502.32,1458.34C2497.82,1456.78 2492.7,1455.53 2486.98,1454.5C2481.96,1453.59 2476.49,1452.91 2470.57,1452.39C2464.34,1451.72 2459.62,1446.46 2459.62,1440.19L2458.58,1389.25C2458.58,1381.9 2464.54,1375.94 2471.89,1375.94C2500.97,1375.3 2525.88,1377.96 2546.7,1383.51C2566.21,1388.71 2582.21,1396.69 2594.99,1406.95C2610.13,1419.07 2621.2,1434.52 2628.62,1453.1C2634.89,1468.79 2638.24,1486.86 2638.79,1507.36L2639.86,1547.1C2639.94,1550.39 2640.33,1553.37 2640.89,1556.04C2641.45,1558.77 2642.33,1560.96 2643.82,1562.46C2644.89,1563.54 2646.42,1563.84 2648.04,1564.19C2649.78,1564.58 2651.71,1564.56 2653.8,1564.51L2666.12,1564.17C2678.02,1564.17 2687.66,1573.82 2687.66,1585.72L2689.51,1648.41C2689.51,1661.33 2679.03,1671.8 2666.12,1671.8L2653.8,1672.16L2645.53,1673.27C2644.31,1674.49 2643.55,1676.26 2643.07,1678.48C2642.52,1681.04 2642.09,1683.88 2641.99,1687.03L2640.62,1727.33C2639.97,1748.05 2636.53,1766.31 2630.12,1782.14C2622.52,1800.93 2611.28,1816.58 2595.89,1828.79C2582.91,1839.08 2566.74,1847.09 2547.01,1852.23C2526.08,1857.69 2501.08,1860.28 2471.89,1859.49C2464.13,1859.49 2457.84,1853.19 2457.84,1845.43L2459.08,1794.5C2459.08,1787.96 2464.01,1782.47 2470.51,1781.76C2476.42,1781.24 2481.87,1780.56 2486.87,1779.66C2492.57,1778.63 2497.66,1777.4 2502.14,1775.85C2505.65,1774.64 2508.84,1773.24 2511.66,1771.54C2514.53,1769.81 2517.05,1767.87 2519.13,1765.59C2521.21,1763.31 2523.01,1760.81 2524.47,1758.04C2525.92,1755.27 2527.11,1752.28 2527.97,1749.04C2529.02,1745.03 2529.82,1740.61 2530.35,1735.78C2530.82,1731.42 2531.1,1726.74 2531.16,1721.73L2531.39,1704.38C2531.51,1695.76 2531.93,1687.92 2532.69,1680.86C2533.31,1675.01 2534.13,1669.69 2535.18,1664.89C2536.3,1659.65 2537.72,1654.84 2539.42,1650.46C2541.46,1645.21 2543.89,1640.54 2546.72,1636.48C2549.39,1632.64 2552.38,1629.21 2555.7,1626.2C2559.1,1623.12 2562.82,1620.46 2566.89,1618.24C2567.64,1617.82 2568.39,1617.42 2569.17,1617.02ZM2643.4,1625.63L2643.98,1606.06C2638.61,1605.23 2633.76,1603.79 2629.42,1601.74C2623.46,1598.93 2618.23,1595.29 2613.97,1590.5C2609.55,1585.54 2605.86,1579.49 2603.61,1571.95C2601.54,1565.03 2600.33,1556.78 2600.58,1547.1L2601.65,1507.36C2602.08,1491.53 2600.47,1477.41 2596.26,1465.06C2591.74,1451.75 2584.55,1440.48 2574.36,1431.44C2565.01,1423.18 2553.03,1416.73 2538.38,1412.1C2523.17,1407.29 2505.35,1404.29 2484.92,1403.08C2484.92,1403.08 2484.38,1429.68 2484.38,1429.68C2486.9,1430.13 2489.33,1430.61 2491.67,1431.13C2498.65,1432.67 2504.86,1434.47 2510.31,1436.59C2515.41,1438.55 2520,1440.83 2524.05,1443.48C2528.81,1446.58 2532.9,1450.1 2536.29,1454.09C2539.52,1457.9 2542.28,1462.07 2544.48,1466.64C2546.53,1470.91 2548.16,1475.49 2549.29,1480.44C2550.43,1485.43 2551.27,1490.91 2551.74,1496.89C2552.14,1501.89 2552.31,1507.24 2552.22,1512.95L2551.97,1529.75C2551.9,1536.36 2552.02,1542.44 2552.36,1548.01C2552.77,1554.62 2553.46,1560.47 2554.46,1565.55C2555.27,1569.65 2556.29,1573.44 2557.59,1576.89C2558.97,1580.57 2560.64,1583.86 2562.61,1586.76C2564.4,1589.4 2566.41,1591.77 2568.66,1593.85C2570.92,1595.94 2573.4,1597.75 2576.12,1599.28C2579.3,1601.05 2582.76,1602.7 2586.51,1604.19C2589.99,1605.57 2593.72,1606.82 2597.68,1607.97C2601.73,1609.15 2604.51,1612.85 2604.51,1617.06C2604.51,1621.27 2601.73,1624.98 2597.68,1626.16C2593.73,1627.32 2590.01,1628.6 2586.53,1630C2582.8,1631.5 2579.34,1633.14 2576.16,1634.92C2573.45,1636.45 2570.99,1638.28 2568.74,1640.37C2566.51,1642.45 2564.52,1644.83 2562.74,1647.47C2560.79,1650.36 2559.15,1653.68 2557.78,1657.4C2556.5,1660.88 2555.5,1664.71 2554.7,1668.87C2553.72,1674.01 2553.06,1679.82 2552.68,1686.3C2552.34,1691.85 2552.23,1697.88 2552.32,1704.38L2552.55,1721.73C2552.63,1727.46 2552.44,1732.82 2552.04,1737.82C2551.57,1743.82 2550.73,1749.32 2549.59,1754.32C2548.47,1759.3 2546.84,1763.91 2544.8,1768.2C2542.6,1772.82 2539.84,1777.02 2536.6,1780.87C2533.2,1784.9 2529.09,1788.46 2524.3,1791.61C2520.24,1794.28 2515.62,1796.59 2510.49,1798.59C2506.01,1800.34 2501.01,1801.87 2495.5,1803.22C2492.18,1804.04 2488.67,1804.78 2484.97,1805.45L2485.59,1830.75C2501.14,1829.72 2515.16,1827.65 2527.66,1824.54C2546.88,1819.76 2562.14,1812.32 2573.47,1802.18C2583.43,1793.28 2590.38,1782.15 2594.76,1769.07C2598.85,1756.87 2600.31,1742.94 2599.82,1727.33L2598.45,1687.03C2598.12,1677.08 2599.39,1668.6 2601.46,1661.47C2603.77,1653.56 2607.67,1647.25 2612.26,1642.02C2616.7,1636.96 2622.2,1633.17 2628.44,1630.16C2632.89,1628.02 2637.88,1626.53 2643.4,1625.63Z" style="fill:url(#_Linear6);"/>
    </g>
    <defs>
        <linearGradient id="_Linear1" x1="0" y1="0" x2="1" y2="0" gradientUnits="userSpaceOnUse" gradientTransform="matrix(1913.16,0,0,459.54,752.956,1615.66)"><stop offset="0" style="stop-color:rgb(199,52,52);stop-opacity:1"/><stop offset="1" style="stop-color:rgb(255,239,0);stop-opacity:1"/></linearGradient>
        <linearGradient id="_Linear2" x1="0" y1="0" x2="1" y2="0" gradientUnits="userSpaceOnUse" gradientTransform="matrix(1913.16,0,0,459.54,752.956,1615.66)"><stop offset="0" style="stop-color:rgb(199,52,52);stop-opacity:1"/><stop offset="1" style="stop-color:rgb(255,239,0);stop-opacity:1"/></linearGradient>
        <linearGradient id="_Linear3" x1="0" y1="0" x2="1" y2="0" gradientUnits="userSpaceOnUse" gradientTransform="matrix(1913.16,0,0,459.54,752.956,1615.66)"><stop offset="0" style="stop-color:rgb(199,52,52);stop-opacity:1"/><stop offset="1" style="stop-color:rgb(255,239,0);stop-opacity:1"/></linearGradient>
        <linearGradient id="_Linear4" x1="0" y1="0" x2="1" y2="0" gradientUnits="userSpaceOnUse" gradientTransform="matrix(1913.16,0,0,459.54,752.956,1615.66)"><stop offset="0" style="stop-color:rgb(199,52,52);stop-opacity:1"/><stop offset="1" style="stop-color:rgb(255,239,0);stop-opacity:1"/></linearGradient>
        <linearGradient id="_Linear5" x1="0" y1="0" x2="1" y2="0" gradientUnits="userSpaceOnUse" gradientTransform="matrix(1913.16,0,0,459.54,752.956,1615.66)"><stop offset="0" style="stop-color:rgb(199,52,52);stop-opacity:1"/><stop offset="1" style="stop-color:rgb(255,239,0);stop-opacity:1"/></linearGradient>
        <linearGradient id="_Linear6" x1="0" y1="0" x2="1" y2="0" gradientUnits="userSpaceOnUse" gradientTransform="matrix(1913.16,0,0,459.54,752.956,1615.66)"><stop offset="0" style="stop-color:rgb(199,52,52);stop-opacity:1"/><stop offset="1" style="stop-color:rgb(255,239,0);stop-opacity:1"/></linearGradient>
    </defs>
</svg>
