<?xml version="1.0" encoding="UTF-8" standalone="no"?>
<!DOCTYPE svg PUBLIC "-//W3C//DTD SVG 1.1//EN" "http://www.w3.org/Graphics/SVG/1.1/DTD/svg11.dtd">
<svg width="100%" height="100%" viewBox="0 0 30 30" version="1.1" xmlns="http://www.w3.org/2000/svg" xmlns:xlink="http://www.w3.org/1999/xlink" xml:space="preserve" xmlns:serif="http://www.serif.com/" style="fill-rule:evenodd;clip-rule:evenodd;stroke-linejoin:round;stroke-miterlimit:2;">
    <g transform="matrix(1,0,0,1,-145,-49)">
        <path d="M160,49C151.721,49 145,55.721 145,64C145,72.279 151.721,79 160,79C168.279,79 175,72.279 175,64C175,55.721 168.279,49 160,49ZM159,63.072L153,63.072C152.448,63.072 152,63.52 152,64.072C152,64.624 152.448,65.072 153,65.072L159,65.072L159,71.072C159,71.624 159.448,72.072 160,72.072C160.552,72.072 161,71.624 161,71.072L161,65.072L167,65.072C167.552,65.072 168,64.624 168,64.072C168,63.52 167.552,63.072 167,63.072L161,63.072L161,57.072C161,56.52 160.552,56.072 160,56.072C159.448,56.072 159,56.52 159,57.072L159,63.072Z"/>
    </g>
</svg>
