<svg xmlns="http://www.w3.org/2000/svg" xmlns:xlink="http://www.w3.org/1999/xlink" xmlns:serif="http://www.serif.com/" viewBox="0 0 32 40" version="1.1" xml:space="preserve" style="" x="0px" y="0px" fill-rule="evenodd" clip-rule="evenodd" stroke-linejoin="round" stroke-miterlimit="2"><g transform="matrix(1,0,0,1,-144,-48)"><path d="M160,49C151.721,49 145,55.721 145,64C145,72.279 151.721,79 160,79C168.279,79 175,72.279 175,64C175,55.721 168.279,49 160,49ZM159,63.072L153,63.072C152.448,63.072 152,63.52 152,64.072C152,64.624 152.448,65.072 153,65.072L159,65.072L159,71.072C159,71.624 159.448,72.072 160,72.072C160.552,72.072 161,71.624 161,71.072L161,65.072L167,65.072C167.552,65.072 168,64.624 168,64.072C168,63.52 167.552,63.072 167,63.072L161,63.072L161,57.072C161,56.52 160.552,56.072 160,56.072C159.448,56.072 159,56.52 159,57.072L159,63.072Z"/></g><text x="0" y="47" fill="#000000" font-size="5px" font-weight="bold" font-family="'Helvetica Neue', Helvetica, Arial-Unicode, Arial, Sans-serif">Created by Winaldi</text><text x="0" y="52" fill="#000000" font-size="5px" font-weight="bold" font-family="'Helvetica Neue', Helvetica, Arial-Unicode, Arial, Sans-serif">from the Noun Project</text></svg>